{
    "asset" : {
        "generator" : "Khronos glTF Blender I/O v1.2.75",
        "version" : "2.0"
    },
    "scene" : 0,
    "scenes" : [
        {
            "name" : "Scene",
            "nodes" : [
                0
            ]
        }
    ],
    "nodes" : [
        {
            "mesh" : 0,
            "name" : "8445c15ce0804355ad6ad7680cc3cd75.010",
            "rotation" : [
                0,
                -0.9991685152053833,
                0,
                -0.04077088087797165
            ],
            "scale" : [
                1.6968111991882324,
                1.0173356533050537,
                1.6968111991882324
            ],
            "translation" : [
                23.53020477294922,
                3.782745361328125,
                4.071434020996094
            ]
        }
    ],
    "materials" : [
        {
            "doubleSided" : true,
            "emissiveFactor" : [
                0,
                0,
                0
            ],
            "name" : "Material",
            "pbrMetallicRoughness" : {
                "baseColorFactor" : [
                    0.8140413165092468,
                    0.8140413165092468,
                    0.8140413165092468,
                    1
                ],
                "metallicFactor" : 0,
                "roughnessFactor" : 0.4000000059604645
            }
        }
    ],
    "meshes" : [
        {
            "name" : "8445c15ce0804355ad6ad7680cc3cd75.010",
            "primitives" : [
                {
                    "attributes" : {
                        "POSITION" : 0,
                        "NORMAL" : 1,
                        "TEXCOORD_0" : 2
                    },
                    "indices" : 3,
                    "material" : 0
                }
            ]
        }
    ],
    "accessors" : [
        {
            "bufferView" : 0,
            "componentType" : 5126,
            "count" : 54,
            "max" : [
                1.699036717414856,
                2.143359899520874,
                10.401023864746094
            ],
            "min" : [
                -0.8498554229736328,
                -2.9128894805908203,
                -1.8164916038513184
            ],
            "type" : "VEC3"
        },
        {
            "bufferView" : 1,
            "componentType" : 5126,
            "count" : 54,
            "type" : "VEC3"
        },
        {
            "bufferView" : 2,
            "componentType" : 5126,
            "count" : 54,
            "type" : "VEC2"
        },
        {
            "bufferView" : 3,
            "componentType" : 5123,
            "count" : 78,
            "type" : "SCALAR"
        }
    ],
    "bufferViews" : [
        {
            "buffer" : 0,
            "byteLength" : 648,
            "byteOffset" : 0
        },
        {
            "buffer" : 0,
            "byteLength" : 648,
            "byteOffset" : 648
        },
        {
            "buffer" : 0,
            "byteLength" : 432,
            "byteOffset" : 1296
        },
        {
            "buffer" : 0,
            "byteLength" : 156,
            "byteOffset" : 1728
        }
    ],
    "buffers" : [
        {
            "byteLength" : 1884,
            "uri" : "backwall.bin"
        }
    ]
}
